<svg xmlns="http://www.w3.org/2000/svg" xmlns:xlink="http://www.w3.org/1999/xlink" x="0px" y="0px"
	 viewBox="0 0 90 36" style="enable-background:new 0 0 90 36;" xml:space="preserve">
<style type="text/css">
	.st0{fill:#FFFFFF;}
	.st1{fill:none;}
	.st2{fill:#FF773B;}
</style>
<path class="st0" d="M86.3,24.3V13.1h3.3v11.2H86.3z M88,11.6c-0.6,0-1.1-0.2-1.5-0.5c-0.4-0.3-0.6-0.8-0.6-1.3
	c0-0.5,0.2-0.9,0.6-1.3c0.4-0.3,0.9-0.5,1.5-0.5s1.1,0.2,1.5,0.5C89.8,8.7,90,9.2,90,9.7c0,0.5-0.2,1-0.6,1.4
	C89.1,11.4,88.6,11.6,88,11.6z"/>
<path class="st0" d="M77,28.6c-1.1,0-2.1-0.1-3.1-0.4c-1-0.3-1.8-0.6-2.4-1.1l1.3-2.3c0.5,0.4,1.1,0.7,1.8,0.9
	c0.7,0.2,1.5,0.4,2.2,0.4c1.2,0,2-0.3,2.5-0.8c0.5-0.5,0.8-1.3,0.8-2.3v-1.7l0.2-2.8l0-2.8v-2.4h3.1v9.3c0,2.1-0.5,3.6-1.6,4.6
	C80.6,28.1,79.1,28.6,77,28.6z M76.5,23.8c-1,0-2-0.2-2.8-0.7c-0.8-0.5-1.5-1.1-2-1.9c-0.5-0.8-0.8-1.8-0.8-2.9
	c0-1.1,0.3-2.1,0.8-2.9c0.5-0.8,1.2-1.5,2-1.9c0.8-0.4,1.8-0.7,2.8-0.7c0.9,0,1.8,0.2,2.5,0.6c0.7,0.4,1.3,1,1.7,1.8
	c0.4,0.8,0.6,1.8,0.6,3.1c0,1.2-0.2,2.3-0.6,3.1c-0.4,0.8-1,1.4-1.7,1.8C78.3,23.6,77.5,23.8,76.5,23.8z M77.2,21.1
	c0.6,0,1.1-0.1,1.5-0.3c0.4-0.2,0.8-0.6,1-1c0.3-0.4,0.4-0.9,0.4-1.4c0-0.6-0.1-1-0.4-1.4c-0.3-0.4-0.6-0.7-1-1
	c-0.4-0.2-1-0.4-1.5-0.4s-1.1,0.1-1.5,0.4c-0.4,0.2-0.8,0.5-1.1,1c-0.3,0.4-0.4,0.9-0.4,1.4c0,0.5,0.1,1,0.4,1.4
	c0.3,0.4,0.6,0.7,1.1,1C76.1,21,76.6,21.1,77.2,21.1z"/>
<path class="st0" d="M63.4,24.5c-1.2,0-2.3-0.3-3.2-0.8c-0.9-0.5-1.6-1.2-2.2-2c-0.5-0.9-0.8-1.9-0.8-3c0-1.1,0.3-2.1,0.8-3
	c0.5-0.9,1.3-1.6,2.2-2c0.9-0.5,2-0.8,3.2-0.8c1.2,0,2.2,0.3,3.2,0.8c0.9,0.5,1.7,1.2,2.2,2c0.5,0.9,0.8,1.9,0.8,3
	c0,1.1-0.3,2.1-0.8,3c-0.5,0.9-1.3,1.5-2.2,2C65.7,24.3,64.6,24.5,63.4,24.5z M63.4,21.8c0.5,0,1-0.1,1.5-0.4c0.4-0.3,0.8-0.6,1-1.1
	c0.3-0.5,0.4-1,0.4-1.7c0-0.7-0.1-1.2-0.4-1.7c-0.3-0.5-0.6-0.8-1-1.1c-0.4-0.3-0.9-0.4-1.5-0.4c-0.5,0-1,0.1-1.5,0.4
	c-0.4,0.3-0.8,0.6-1,1.1c-0.3,0.5-0.4,1-0.4,1.7c0,0.6,0.1,1.2,0.4,1.7c0.3,0.5,0.6,0.8,1,1.1C62.4,21.7,62.9,21.8,63.4,21.8z"/>
<path class="st0" d="M45.8,24.3V9.7h3.4v11.8h7.3v2.8H45.8z"/>
<rect x="0" y="0.9" class="st1" width="34.2" height="34.2"/>
<g>
	<path class="st2" d="M30.9,35.2H15c-4.7,0-7.1-5.6-3.9-9l9.7-10.3l1.1,3.6c0.3,1.1,1.8,1.1,2.2,0.1L28.6,8c0.4-0.9-0.6-1.9-1.5-1.5
		L15.6,11c-1,0.4-1,1.9,0.1,2.2l3.6,1.1L9,24c-3.4,3.2-9,0.8-9-3.9V4.3c0-1.9,1.5-3.4,3.4-3.4h27.5c1.9,0,3.4,1.5,3.4,3.4v27.5
		C34.2,33.7,32.7,35.2,30.9,35.2z"/>
</g>
</svg>
